<svg width="240" height="240" viewBox="0 0 240 240" fill="none" xmlns="http://www.w3.org/2000/svg">
<g opacity="0.5" filter="url(#filter0_f_8012_385)">
<circle cx="120" cy="120" r="48" fill="#44C5FF"/>
</g>
<path fill-rule="evenodd" clip-rule="evenodd" d="M140.171 77.284C135.85 77.039 131.53 76.7765 127.209 76.4965C125.701 72.6988 124.155 68.9537 122.516 65.2261C121.529 64.1936 120.281 63.8086 118.792 64.0886C118.326 64.4211 117.879 64.7886 117.469 65.2261C115.849 68.9537 114.285 72.7163 112.776 76.4965C108.456 76.794 104.136 77.0565 99.815 77.284C97.8038 78.1065 97.2078 79.489 98.0086 81.4491C101.305 84.1792 104.657 86.8043 108.084 89.3593C107.339 92.9994 106.37 96.6045 105.197 100.192C105.048 100.945 105.048 101.697 105.197 102.45C106.184 104.007 107.581 104.497 109.406 103.92C112.907 101.732 116.408 99.5796 119.965 97.4971C123.373 99.5096 126.744 101.575 130.058 103.71C130.803 104.147 131.604 104.287 132.461 104.165C134.025 103.78 134.826 102.835 134.863 101.33C133.82 97.3396 132.815 93.3494 131.846 89.3768C135.291 86.8218 138.644 84.1967 141.94 81.4666C142.741 79.524 142.145 78.124 140.133 77.3015L140.171 77.284ZM129.127 86.2967C127.637 87.1893 127.116 88.4143 127.563 90.0068C128.345 92.8769 129.183 95.747 130.096 98.5821C130.021 98.6521 129.928 98.7396 129.854 98.8096C127.172 97.0596 124.434 95.3795 121.697 93.717C120.579 93.2619 119.462 93.2619 118.345 93.717C115.589 95.362 112.87 97.0596 110.188 98.8096C110.802 95.9045 111.566 92.9644 112.479 90.0068C112.925 88.3968 112.404 87.1718 110.914 86.2967C108.512 84.4942 106.11 82.6916 103.707 80.8891C106.836 80.7141 109.946 80.5566 113.074 80.4341C114.453 80.5041 115.533 80.0316 116.315 78.964C117.544 75.9714 118.699 72.9788 119.797 69.9338C120.021 69.9338 120.188 70.0388 120.281 70.2838C121.473 73.1539 122.628 76.0589 123.764 78.964C124.565 80.0316 125.626 80.5216 127.004 80.4341C130.133 80.5566 133.243 80.7141 136.372 80.8891C133.969 82.6916 131.567 84.4942 129.165 86.2967H129.127Z" fill="#44C5FF"/>
<path fill-rule="evenodd" clip-rule="evenodd" d="M94.3027 95.082C93.595 95.2395 92.8687 95.2395 92.1425 95.082C87.4681 92.5794 82.8683 89.9718 78.343 87.3118C77.9519 86.0517 78.3057 85.0717 79.4231 84.3717C80.4846 84.3017 81.4344 84.5817 82.3096 85.1592C86.3135 87.3293 90.3174 89.5343 94.3027 91.7044C95.5877 92.8244 95.5877 93.962 94.3027 95.082Z" fill="#44C5FF"/>
<path fill-rule="evenodd" clip-rule="evenodd" d="M161.773 86.2967C161.81 86.9268 161.55 87.4518 161.065 87.8718C156.633 90.2169 152.22 92.6319 147.862 95.082C145.553 95.537 144.528 94.6795 144.864 92.4919C145.143 92.2294 145.422 91.9669 145.683 91.7044C150.227 89.2893 154.696 86.8568 159.147 84.3542C160.749 84.1442 161.643 84.7742 161.773 86.2792V86.2967Z" fill="#44C5FF"/>
<path fill-rule="evenodd" clip-rule="evenodd" d="M90.8202 108.96C90.5409 109.31 90.1684 109.59 89.7401 109.747C84.3023 109.905 78.8458 109.905 73.4266 109.747C72.0112 109.082 71.6574 108.067 72.3278 106.702C72.6072 106.457 72.8865 106.212 73.1658 106.037C78.7713 106.002 84.3768 106.037 89.9636 106.142C91.1741 106.825 91.4534 107.752 90.8016 108.96H90.8202Z" fill="#44C5FF"/>
<path fill-rule="evenodd" clip-rule="evenodd" d="M167.658 108.96C167.36 109.31 166.987 109.59 166.559 109.747C161.121 109.905 155.683 109.905 150.246 109.747C148.42 108.575 148.365 107.332 150.022 106.037C155.609 106.002 161.233 106.037 166.82 106.142C168.03 106.825 168.31 107.752 167.658 108.96Z" fill="#44C5FF"/>
<path fill-rule="evenodd" clip-rule="evenodd" d="M154.1 173.852C151.922 160.096 143.839 150.961 129.854 146.428C135.291 142.911 138.178 138.011 138.495 131.763C137.284 120.913 130.878 115.138 119.294 114.403C111.585 115.12 106.11 118.795 102.832 125.445C100.001 134.091 102.441 141.091 110.169 146.428C103.54 148.406 97.9714 151.854 93.4833 156.824C88.809 162.109 86.3508 168.217 86.0342 175.094C86.3135 175.357 86.5929 175.619 86.8722 175.882C108.959 176.039 131.045 176.039 153.132 175.882C153.951 175.409 154.249 174.744 154.1 173.852ZM107.152 137.626C104.247 130.416 106.128 124.605 112.795 120.125C114.862 119.093 117.022 118.463 119.276 118.218C126.632 118.445 131.455 121.84 133.802 128.368C135.105 134.948 132.759 140.041 126.725 143.593C118.382 146.744 111.864 144.766 107.134 137.626H107.152ZM90.2243 172.154C94.0978 158.084 103.707 150.331 119.034 148.914C132.535 149.264 142.182 155.126 147.974 166.502C148.7 168.357 149.296 170.229 149.78 172.154C129.928 172.452 110.076 172.452 90.2429 172.154H90.2243Z" fill="#44C5FF"/>
<path fill-rule="evenodd" clip-rule="evenodd" d="M95.2711 122.4C95.3083 123.03 95.0476 123.555 94.5634 123.975C90.0753 126.39 85.5872 128.805 81.1178 131.186C78.3802 131.483 77.5794 130.416 78.7154 128.035C83.4084 125.568 88.0454 123.048 92.6453 120.475C94.2468 120.265 95.1407 120.895 95.2711 122.4Z" fill="#44C5FF"/>
<path fill-rule="evenodd" clip-rule="evenodd" d="M161.419 130.853C160.618 131.291 159.799 131.413 158.886 131.203C154.417 128.805 149.929 126.39 145.441 123.993C144.379 122.663 144.547 121.49 145.925 120.493C147.154 120.493 148.271 120.843 149.277 121.525C153.207 123.66 157.117 125.795 161.047 127.948C161.866 128.84 161.978 129.821 161.419 130.871V130.853Z" fill="#44C5FF"/>
<defs>
<filter id="filter0_f_8012_385" x="0" y="0" width="240" height="240" filterUnits="userSpaceOnUse" color-interpolation-filters="sRGB">
<feFlood flood-opacity="0" result="BackgroundImageFix"/>
<feBlend mode="normal" in="SourceGraphic" in2="BackgroundImageFix" result="shape"/>
<feGaussianBlur stdDeviation="36" result="effect1_foregroundBlur_8012_385"/>
</filter>
</defs>
</svg>
